<svg viewBox="0 0 24 24" xmlns="http://www.w3.org/2000/svg">
  <path fill="#74abfe" d="M13.983 11.078h2.119a.186.186 0 00.186-.185v-1.271a.186.186 0 00-.186-.186h-2.119a.185.185 0 00-.185.185v1.271c0 .102.083.186.185.186m-2.954-5.43h2.118a.186.186 0 00.186-.186V4.191a.186.186 0 00-.186-.185h-2.118a.185.185 0 00-.185.185v1.271c0 .102.082.185.185.185m0 4.717h2.118a.186.186 0 00.186-.185v-1.271a.186.186 0 00-.186-.186h-2.118a.185.185 0 00-.185.185v1.271c0 .102.082.186.185.186m-2.93-4.717h2.117a.186.186 0 00.186-.186V4.191a.186.186 0 00-.186-.185H8.1a.185.185 0 00-.185.185v1.271c0 .102.083.185.185.185m2.93 1.43h2.118a.186.186 0 00.186-.186V5.46a.186.186 0 00-.186-.185h-2.118a.185.185 0 00-.185.185v1.271c0 .102.082.186.185.186m-5.853 4.717h2.118a.186.186 0 00.186-.185v-1.271a.186.186 0 00-.186-.186H5.176a.185.185 0 00-.185.185v1.271c0 .102.083.186.185.186m2.93 0h2.117a.186.186 0 00.186-.185v-1.271a.186.186 0 00-.186-.186H8.1a.185.185 0 00-.185.185v1.271c0 .102.083.186.185.186m2.953 0h2.118a.186.186 0 00.186-.185v-1.271a.186.186 0 00-.186-.186h-2.118a.185.185 0 00-.185.185v1.271c0 .102.082.186.185.186m-8.763-2.63h2.118a.186.186 0 00.186-.186V5.46a.186.186 0 00-.186-.185H5.176a.185.185 0 00-.185.185v1.271c0 .102.083.186.185.186m-.008 2.631h2.119a.186.186 0 00.186-.186v-1.27a.186.186 0 00-.186-.186H5.168a.186.186 0 00-.186.185v1.271c0 .101.084.186.186.186m-2.753-2.631h2.118a.186.186 0 00.186-.186V5.46a.186.186 0 00-.186-.185H2.415a.185.185 0 00-.185.185v1.271c0 .102.083.186.185.186m-1.44 1.432c-.314.186-.315.612 0 .799l.56.327 2.115 1.233.02.012a.339.339 0 00.339 0l2.119-1.233.012-.006 2.118-1.234a.34.34 0 000-.587l-2.119-1.233-.012-.006-2.118-1.234a.341.341 0 00-.34 0L.974 9.844l-.012.007-.563.328zm13.244-.83c-.021-.083-.072-.163-.156-.202-.03-.013-.062-.02-.094-.018a.32.32 0 00-.182.072c-.034.027-.063.059-.086.096a.325.325 0 00-.055.182v1.06a.325.325 0 00.055.181.334.334 0 00.086.097.316.316 0 00.182.071c.032.002.064-.005.094-.018.084-.04.135-.12.156-.203.02-.083.021-.17 0-.254l.001-.002v-.897l-.001-.162z"/>
</svg>
