<svg viewBox="0 0 24 24" xmlns="http://www.w3.org/2000/svg">
  <path fill="#74abfe" d="M7.01 10.207h-.944l-.515 2.648h.838c.556 0 .97-.105 1.242-.314.272-.21.455-.559.55-1.049.092-.47.05-.802-.124-.995-.175-.193-.523-.29-1.047-.29zM12 .296c-6.627 0-12 5.373-12 12 0 6.628 5.373 12 12 12s12-5.372 12-12C24 5.67 18.627.296 12 .296zm-1.253 14.02H9.456l-.406 2.102H7.783l1.361-7.027h2.26c.664 0 1.168.14 1.511.42.344.28.478.683.404 1.21-.126.94-.69 1.574-1.572 1.295zm4.468 1.353l-.65-2.47h-.65l-.49 2.47H12.16l1.362-7.027h1.264l-.387 1.984h.75c.588 0 1.04.127 1.356.382.316.255.421.637.315 1.147-.115.568-.395.986-.84 1.254-.443.268-1.073.26-1.765-.74zm3.612-1.353h-.946l-.516 2.648h.838c.557 0 .97-.105 1.243-.314.272-.21.455-.559.55-1.049.09-.47.049-.802-.125-.995-.175-.193-.523-.29-1.044-.29z"/>
</svg>
